<?xml version="1.0" encoding="UTF-8" standalone="no"?>
<!DOCTYPE svg PUBLIC "-//W3C//DTD SVG 1.1//EN"
 "http://www.w3.org/Graphics/SVG/1.1/DTD/svg11.dtd">
<!-- Generated by graphviz version 2.43.0 (0)
 -->
<!-- Title: bop Pages: 1 -->
<svg width="645pt" height="260pt"
 viewBox="0.00 0.00 645.00 260.00" xmlns="http://www.w3.org/2000/svg" xmlns:xlink="http://www.w3.org/1999/xlink">
<g id="graph0" class="graph" transform="scale(1 1) rotate(0) translate(4 256)">
<title>bop</title>
<polygon fill="white" stroke="transparent" points="-4,4 -4,-256 641,-256 641,4 -4,4"/>
<!-- a -->
<g id="node1" class="node">
<title>a</title>
<ellipse fill="none" stroke="black" cx="27" cy="-18" rx="27" ry="18"/>
<text text-anchor="middle" x="27" y="-14.3" font-family="Times,serif" font-size="14.00">a</text>
</g>
<!-- bop1 -->
<g id="node2" class="node">
<title>bop1</title>
<ellipse fill="none" stroke="black" cx="103" cy="-18" rx="31.4" ry="18"/>
<text text-anchor="middle" x="103" y="-14.3" font-family="Times,serif" font-size="14.00">BOP</text>
</g>
<!-- b -->
<g id="node3" class="node">
<title>b</title>
<ellipse fill="none" stroke="black" cx="179" cy="-18" rx="27" ry="18"/>
<text text-anchor="middle" x="179" y="-14.3" font-family="Times,serif" font-size="14.00">b</text>
</g>
<!-- bop2 -->
<g id="node4" class="node">
<title>bop2</title>
<ellipse fill="none" stroke="black" cx="255" cy="-18" rx="31.4" ry="18"/>
<text text-anchor="middle" x="255" y="-14.3" font-family="Times,serif" font-size="14.00">BOP</text>
</g>
<!-- pop -->
<g id="node5" class="node">
<title>pop</title>
<ellipse fill="none" stroke="black" cx="339" cy="-18" rx="30.59" ry="18"/>
<text text-anchor="middle" x="339" y="-14.3" font-family="Times,serif" font-size="14.00">POP</text>
</g>
<!-- c -->
<g id="node6" class="node">
<title>c</title>
<ellipse fill="none" stroke="black" cx="440" cy="-18" rx="27" ry="18"/>
<text text-anchor="middle" x="440" y="-14.3" font-family="Times,serif" font-size="14.00">c</text>
</g>
<!-- bop3 -->
<g id="node7" class="node">
<title>bop3</title>
<ellipse fill="none" stroke="black" cx="528" cy="-18" rx="31.4" ry="18"/>
<text text-anchor="middle" x="528" y="-14.3" font-family="Times,serif" font-size="14.00">BOP</text>
</g>
<!-- d -->
<g id="node8" class="node">
<title>d</title>
<ellipse fill="none" stroke="black" cx="610" cy="-18" rx="27" ry="18"/>
<text text-anchor="middle" x="610" y="-14.3" font-family="Times,serif" font-size="14.00">d</text>
</g>
<!-- be1 -->
<g id="node9" class="node">
<title>be1</title>
<ellipse fill="none" stroke="black" cx="137" cy="-90" rx="51.99" ry="18"/>
<text text-anchor="middle" x="137" y="-86.3" font-family="Times,serif" font-size="14.00">bop&#45;expr</text>
</g>
<!-- be1&#45;&gt;a -->
<g id="edge1" class="edge">
<title>be1&#45;&gt;a</title>
<path fill="none" stroke="black" d="M113.13,-73.81C96.02,-62.92 72.92,-48.22 54.94,-36.78"/>
<polygon fill="black" stroke="black" points="56.39,-33.55 46.07,-31.14 52.63,-39.46 56.39,-33.55"/>
</g>
<!-- be1&#45;&gt;bop1 -->
<g id="edge2" class="edge">
<title>be1&#45;&gt;bop1</title>
<path fill="none" stroke="black" d="M128.77,-72.05C124.8,-63.89 119.96,-53.91 115.54,-44.82"/>
<polygon fill="black" stroke="black" points="118.67,-43.25 111.15,-35.79 112.38,-46.31 118.67,-43.25"/>
</g>
<!-- be1&#45;&gt;b -->
<g id="edge3" class="edge">
<title>be1&#45;&gt;b</title>
<path fill="none" stroke="black" d="M147.17,-72.05C152.19,-63.68 158.36,-53.4 163.92,-44.13"/>
<polygon fill="black" stroke="black" points="167.07,-45.68 169.22,-35.31 161.07,-42.08 167.07,-45.68"/>
</g>
<!-- be2b -->
<g id="node10" class="node">
<title>be2b</title>
<ellipse fill="none" stroke="navy" cx="297" cy="-162" rx="51.99" ry="18"/>
<text text-anchor="middle" x="297" y="-158.3" font-family="Times,serif" font-size="14.00" fill="navy">bop&#45;expr</text>
</g>
<!-- be2b&#45;&gt;bop2 -->
<g id="edge5" class="edge">
<title>be2b&#45;&gt;bop2</title>
<path fill="none" stroke="navy" d="M288.66,-144.15C283.85,-133.89 277.98,-120.42 274,-108 267.47,-87.59 262.52,-63.83 259.32,-45.99"/>
<polygon fill="navy" stroke="navy" points="262.74,-45.25 257.59,-35.99 255.84,-46.44 262.74,-45.25"/>
</g>
<!-- be2b&#45;&gt;be1 -->
<g id="edge4" class="edge">
<title>be2b&#45;&gt;be1</title>
<path fill="none" stroke="navy" d="M266.15,-147.5C240.89,-136.45 204.95,-120.73 177.39,-108.67"/>
<polygon fill="navy" stroke="navy" points="178.59,-105.38 168.03,-104.57 175.79,-111.79 178.59,-105.38"/>
</g>
<!-- peb -->
<g id="node12" class="node">
<title>peb</title>
<ellipse fill="none" stroke="navy" cx="335" cy="-90" rx="51.99" ry="18"/>
<text text-anchor="middle" x="335" y="-86.3" font-family="Times,serif" font-size="14.00" fill="navy">pop&#45;expr</text>
</g>
<!-- be2b&#45;&gt;peb -->
<g id="edge6" class="edge">
<title>be2b&#45;&gt;peb</title>
<path fill="none" stroke="navy" d="M306.2,-144.05C310.63,-135.89 316.05,-125.91 320.98,-116.82"/>
<polygon fill="navy" stroke="navy" points="324.19,-118.25 325.89,-107.79 318.04,-114.91 324.19,-118.25"/>
</g>
<!-- be3b -->
<g id="node11" class="node">
<title>be3b</title>
<ellipse fill="none" stroke="navy" cx="575" cy="-234" rx="51.99" ry="18"/>
<text text-anchor="middle" x="575" y="-230.3" font-family="Times,serif" font-size="14.00" fill="navy">bop&#45;expr</text>
</g>
<!-- be3b&#45;&gt;bop3 -->
<g id="edge10" class="edge">
<title>be3b&#45;&gt;bop3</title>
<path fill="none" stroke="navy" d="M575.02,-215.65C574.6,-185.67 571.73,-122.52 556,-72 553,-62.37 548.26,-52.43 543.52,-43.8"/>
<polygon fill="navy" stroke="navy" points="546.49,-41.95 538.47,-35.03 540.43,-45.44 546.49,-41.95"/>
</g>
<!-- be3b&#45;&gt;d -->
<g id="edge11" class="edge">
<title>be3b&#45;&gt;d</title>
<path fill="none" stroke="navy" d="M580.1,-215.94C583.04,-205.62 586.62,-192.14 589,-180 598.18,-133.28 604.39,-78.12 607.55,-46"/>
<polygon fill="navy" stroke="navy" points="611.03,-46.33 608.5,-36.04 604.07,-45.66 611.03,-46.33"/>
</g>
<!-- be3b&#45;&gt;be2b -->
<g id="edge9" class="edge">
<title>be3b&#45;&gt;be2b</title>
<path fill="none" stroke="navy" d="M533.3,-223.24C489.54,-212.89 418.78,-195.89 358,-180 353.99,-178.95 349.84,-177.84 345.68,-176.72"/>
<polygon fill="navy" stroke="navy" points="346.57,-173.33 336,-174.07 344.72,-180.08 346.57,-173.33"/>
</g>
<!-- peb&#45;&gt;pop -->
<g id="edge7" class="edge">
<title>peb&#45;&gt;pop</title>
<path fill="none" stroke="navy" d="M335.99,-71.7C336.43,-63.98 336.96,-54.71 337.45,-46.11"/>
<polygon fill="navy" stroke="navy" points="340.95,-46.29 338.02,-36.1 333.96,-45.89 340.95,-46.29"/>
</g>
<!-- peb&#45;&gt;c -->
<g id="edge8" class="edge">
<title>peb&#45;&gt;c</title>
<path fill="none" stroke="navy" d="M357.78,-73.81C374.01,-62.99 395.89,-48.4 413,-37"/>
<polygon fill="navy" stroke="navy" points="415.08,-39.82 421.46,-31.36 411.2,-34 415.08,-39.82"/>
</g>
<!-- be2r -->
<g id="node13" class="node">
<title>be2r</title>
<ellipse fill="none" stroke="red" cx="217" cy="-234" rx="51.99" ry="18"/>
<text text-anchor="middle" x="217" y="-230.3" font-family="Times,serif" font-size="14.00" fill="red">bop&#45;expr</text>
</g>
<!-- be2r&#45;&gt;bop2 -->
<g id="edge13" class="edge">
<title>be2r&#45;&gt;bop2</title>
<path fill="none" stroke="red" d="M220.05,-215.85C226.63,-178.74 242.26,-90.75 250.2,-46.05"/>
<polygon fill="red" stroke="red" points="253.69,-46.39 251.99,-35.94 246.8,-45.17 253.69,-46.39"/>
</g>
<!-- be2r&#45;&gt;be1 -->
<g id="edge12" class="edge">
<title>be2r&#45;&gt;be1</title>
<path fill="none" stroke="red" d="M207.51,-216.15C193.68,-191.6 167.86,-145.77 151.6,-116.91"/>
<polygon fill="red" stroke="red" points="154.44,-114.82 146.48,-107.82 148.34,-118.26 154.44,-114.82"/>
</g>
<!-- per -->
<g id="node15" class="node">
<title>per</title>
<ellipse fill="none" stroke="red" cx="419" cy="-162" rx="51.99" ry="18"/>
<text text-anchor="middle" x="419" y="-158.3" font-family="Times,serif" font-size="14.00" fill="red">pop&#45;expr</text>
</g>
<!-- be2r&#45;&gt;per -->
<g id="edge14" class="edge">
<title>be2r&#45;&gt;per</title>
<path fill="none" stroke="red" d="M252.65,-220.65C286.4,-208.95 337.21,-191.34 373.79,-178.67"/>
<polygon fill="red" stroke="red" points="375.41,-181.81 383.71,-175.23 373.11,-175.2 375.41,-181.81"/>
</g>
<!-- be3r -->
<g id="node14" class="node">
<title>be3r</title>
<ellipse fill="none" stroke="red" cx="495" cy="-90" rx="51.99" ry="18"/>
<text text-anchor="middle" x="495" y="-86.3" font-family="Times,serif" font-size="14.00" fill="red">bop&#45;expr</text>
</g>
<!-- be3r&#45;&gt;c -->
<g id="edge17" class="edge">
<title>be3r&#45;&gt;c</title>
<path fill="none" stroke="red" d="M481.97,-72.41C474.99,-63.53 466.27,-52.44 458.6,-42.67"/>
<polygon fill="red" stroke="red" points="461.12,-40.21 452.19,-34.51 455.61,-44.54 461.12,-40.21"/>
</g>
<!-- be3r&#45;&gt;bop3 -->
<g id="edge18" class="edge">
<title>be3r&#45;&gt;bop3</title>
<path fill="none" stroke="red" d="M502.99,-72.05C506.8,-63.97 511.44,-54.12 515.69,-45.11"/>
<polygon fill="red" stroke="red" points="518.99,-46.33 520.09,-35.79 512.66,-43.34 518.99,-46.33"/>
</g>
<!-- be3r&#45;&gt;d -->
<g id="edge19" class="edge">
<title>be3r&#45;&gt;d</title>
<path fill="none" stroke="red" d="M519.67,-73.98C538.02,-62.82 563.07,-47.57 582.14,-35.96"/>
<polygon fill="red" stroke="red" points="583.97,-38.94 590.69,-30.75 580.33,-32.96 583.97,-38.94"/>
</g>
<!-- per&#45;&gt;pop -->
<g id="edge15" class="edge">
<title>per&#45;&gt;pop</title>
<path fill="none" stroke="red" d="M417.46,-143.83C415.14,-125.06 409.48,-94.62 396,-72 388.39,-59.23 376.8,-47.66 366.06,-38.6"/>
<polygon fill="red" stroke="red" points="368.07,-35.73 358.08,-32.19 363.68,-41.18 368.07,-35.73"/>
</g>
<!-- per&#45;&gt;be3r -->
<g id="edge16" class="edge">
<title>per&#45;&gt;be3r</title>
<path fill="none" stroke="red" d="M436.63,-144.76C446.51,-135.66 459,-124.16 469.88,-114.13"/>
<polygon fill="red" stroke="red" points="472.48,-116.5 477.47,-107.15 467.74,-111.35 472.48,-116.5"/>
</g>
</g>
</svg>
