<?xml version="1.0" encoding="UTF-8" standalone="no"?>
<!DOCTYPE svg PUBLIC "-//W3C//DTD SVG 1.1//EN"
 "http://www.w3.org/Graphics/SVG/1.1/DTD/svg11.dtd">
<!-- Generated by graphviz version 2.43.0 (0)
 -->
<!-- Title: ifthenelse Pages: 1 -->
<svg width="241pt" height="218pt"
 viewBox="0.00 0.00 241.00 218.00" xmlns="http://www.w3.org/2000/svg" xmlns:xlink="http://www.w3.org/1999/xlink">
<g id="graph0" class="graph" transform="scale(1 1) rotate(0) translate(4 214)">
<title>ifthenelse</title>
<polygon fill="white" stroke="transparent" points="-4,4 -4,-214 237,-214 237,4 -4,4"/>
<!-- if1 -->
<g id="node1" class="node">
<title>if1</title>
<ellipse fill="none" stroke="black" cx="153" cy="-192" rx="40.09" ry="18"/>
<text text-anchor="middle" x="153" y="-188.3" font-family="Times,serif" font-size="14.00">if&#45;then</text>
</g>
<!-- if2 -->
<g id="node2" class="node">
<title>if2</title>
<ellipse fill="none" stroke="black" cx="99" cy="-105" rx="61.99" ry="18"/>
<text text-anchor="middle" x="99" y="-101.3" font-family="Times,serif" font-size="14.00">if&#45;then&#45;else</text>
</g>
<!-- if1&#45;&gt;if2 -->
<g id="edge2" class="edge">
<title>if1&#45;&gt;if2</title>
<path fill="none" stroke="black" d="M142.59,-174.61C134.84,-162.42 124.13,-145.56 115.26,-131.6"/>
<polygon fill="black" stroke="black" points="118.07,-129.48 109.75,-122.92 112.16,-133.24 118.07,-129.48"/>
<text text-anchor="middle" x="146.5" y="-144.8" font-family="Times,serif" font-size="14.00">then</text>
</g>
<!-- a -->
<g id="node3" class="node">
<title>a</title>
<ellipse fill="none" stroke="black" cx="206" cy="-105" rx="27" ry="18"/>
<text text-anchor="middle" x="206" y="-101.3" font-family="Times,serif" font-size="14.00">a</text>
</g>
<!-- if1&#45;&gt;a -->
<g id="edge1" class="edge">
<title>if1&#45;&gt;a</title>
<path fill="none" stroke="black" d="M163.47,-174.21C171.24,-161.74 181.96,-144.56 190.69,-130.56"/>
<polygon fill="black" stroke="black" points="193.77,-132.23 196.09,-121.9 187.83,-128.53 193.77,-132.23"/>
<text text-anchor="middle" x="188" y="-144.8" font-family="Times,serif" font-size="14.00">if</text>
</g>
<!-- b -->
<g id="node4" class="node">
<title>b</title>
<ellipse fill="none" stroke="black" cx="27" cy="-18" rx="27" ry="18"/>
<text text-anchor="middle" x="27" y="-14.3" font-family="Times,serif" font-size="14.00">b</text>
</g>
<!-- if2&#45;&gt;b -->
<g id="edge3" class="edge">
<title>if2&#45;&gt;b</title>
<path fill="none" stroke="black" d="M84.78,-87.21C73.81,-74.26 58.53,-56.23 46.44,-41.95"/>
<polygon fill="black" stroke="black" points="48.88,-39.42 39.75,-34.05 43.54,-43.94 48.88,-39.42"/>
<text text-anchor="middle" x="73" y="-57.8" font-family="Times,serif" font-size="14.00">if</text>
</g>
<!-- c -->
<g id="node5" class="node">
<title>c</title>
<ellipse fill="none" stroke="black" cx="99" cy="-18" rx="27" ry="18"/>
<text text-anchor="middle" x="99" y="-14.3" font-family="Times,serif" font-size="14.00">c</text>
</g>
<!-- if2&#45;&gt;c -->
<g id="edge4" class="edge">
<title>if2&#45;&gt;c</title>
<path fill="none" stroke="black" d="M99,-86.8C99,-75.16 99,-59.55 99,-46.24"/>
<polygon fill="black" stroke="black" points="102.5,-46.18 99,-36.18 95.5,-46.18 102.5,-46.18"/>
<text text-anchor="middle" x="115.5" y="-57.8" font-family="Times,serif" font-size="14.00">then</text>
</g>
<!-- d -->
<g id="node6" class="node">
<title>d</title>
<ellipse fill="none" stroke="black" cx="171" cy="-18" rx="27" ry="18"/>
<text text-anchor="middle" x="171" y="-14.3" font-family="Times,serif" font-size="14.00">d</text>
</g>
<!-- if2&#45;&gt;d -->
<g id="edge5" class="edge">
<title>if2&#45;&gt;d</title>
<path fill="none" stroke="black" d="M117.79,-87.61C123.86,-81.96 130.45,-75.43 136,-69 142.88,-61.02 149.7,-51.7 155.47,-43.27"/>
<polygon fill="black" stroke="black" points="158.4,-45.18 161.05,-34.92 152.58,-41.29 158.4,-45.18"/>
<text text-anchor="middle" x="162.5" y="-57.8" font-family="Times,serif" font-size="14.00">else</text>
</g>
</g>
</svg>
