<?xml version="1.0" encoding="UTF-8" standalone="no"?>
<!DOCTYPE svg PUBLIC "-//W3C//DTD SVG 1.1//EN"
 "http://www.w3.org/Graphics/SVG/1.1/DTD/svg11.dtd">
<!-- Generated by graphviz version 2.43.0 (0)
 -->
<!-- Title: ifthenelse Pages: 1 -->
<svg width="255pt" height="218pt"
 viewBox="0.00 0.00 255.00 218.00" xmlns="http://www.w3.org/2000/svg" xmlns:xlink="http://www.w3.org/1999/xlink">
<g id="graph0" class="graph" transform="scale(1 1) rotate(0) translate(4 214)">
<title>ifthenelse</title>
<polygon fill="white" stroke="transparent" points="-4,4 -4,-214 251,-214 251,4 -4,4"/>
<!-- if1 -->
<g id="node1" class="node">
<title>if1</title>
<ellipse fill="none" stroke="black" cx="148" cy="-192" rx="61.99" ry="18"/>
<text text-anchor="middle" x="148" y="-188.3" font-family="Times,serif" font-size="14.00">if&#45;then&#45;else</text>
</g>
<!-- if2 -->
<g id="node2" class="node">
<title>if2</title>
<ellipse fill="none" stroke="black" cx="63" cy="-105" rx="40.09" ry="18"/>
<text text-anchor="middle" x="63" y="-101.3" font-family="Times,serif" font-size="14.00">if&#45;then</text>
</g>
<!-- if1&#45;&gt;if2 -->
<g id="edge2" class="edge">
<title>if1&#45;&gt;if2</title>
<path fill="none" stroke="black" d="M130.14,-174.44C124.01,-168.66 117.15,-162.1 111,-156 102.37,-147.43 93.07,-137.84 84.98,-129.36"/>
<polygon fill="black" stroke="black" points="87.37,-126.79 77.94,-121.95 82.29,-131.61 87.37,-126.79"/>
<text text-anchor="middle" x="127.5" y="-144.8" font-family="Times,serif" font-size="14.00">then</text>
</g>
<!-- a -->
<g id="node3" class="node">
<title>a</title>
<ellipse fill="none" stroke="black" cx="148" cy="-105" rx="27" ry="18"/>
<text text-anchor="middle" x="148" y="-101.3" font-family="Times,serif" font-size="14.00">a</text>
</g>
<!-- if1&#45;&gt;a -->
<g id="edge1" class="edge">
<title>if1&#45;&gt;a</title>
<path fill="none" stroke="black" d="M148,-173.8C148,-162.16 148,-146.55 148,-133.24"/>
<polygon fill="black" stroke="black" points="151.5,-133.18 148,-123.18 144.5,-133.18 151.5,-133.18"/>
<text text-anchor="middle" x="153" y="-144.8" font-family="Times,serif" font-size="14.00">if</text>
</g>
<!-- d -->
<g id="node6" class="node">
<title>d</title>
<ellipse fill="none" stroke="black" cx="220" cy="-105" rx="27" ry="18"/>
<text text-anchor="middle" x="220" y="-101.3" font-family="Times,serif" font-size="14.00">d</text>
</g>
<!-- if1&#45;&gt;d -->
<g id="edge5" class="edge">
<title>if1&#45;&gt;d</title>
<path fill="none" stroke="black" d="M162.22,-174.21C173.19,-161.26 188.47,-143.23 200.56,-128.95"/>
<polygon fill="black" stroke="black" points="203.46,-130.94 207.25,-121.05 198.12,-126.42 203.46,-130.94"/>
<text text-anchor="middle" x="202.5" y="-144.8" font-family="Times,serif" font-size="14.00">else</text>
</g>
<!-- b -->
<g id="node4" class="node">
<title>b</title>
<ellipse fill="none" stroke="black" cx="27" cy="-18" rx="27" ry="18"/>
<text text-anchor="middle" x="27" y="-14.3" font-family="Times,serif" font-size="14.00">b</text>
</g>
<!-- if2&#45;&gt;b -->
<g id="edge3" class="edge">
<title>if2&#45;&gt;b</title>
<path fill="none" stroke="black" d="M55.89,-87.21C50.78,-75.14 43.79,-58.64 37.97,-44.89"/>
<polygon fill="black" stroke="black" points="41.1,-43.31 33.98,-35.47 34.65,-46.04 41.1,-43.31"/>
<text text-anchor="middle" x="53" y="-57.8" font-family="Times,serif" font-size="14.00">if</text>
</g>
<!-- c -->
<g id="node5" class="node">
<title>c</title>
<ellipse fill="none" stroke="black" cx="99" cy="-18" rx="27" ry="18"/>
<text text-anchor="middle" x="99" y="-14.3" font-family="Times,serif" font-size="14.00">c</text>
</g>
<!-- if2&#45;&gt;c -->
<g id="edge4" class="edge">
<title>if2&#45;&gt;c</title>
<path fill="none" stroke="black" d="M70.11,-87.21C75.22,-75.14 82.21,-58.64 88.03,-44.89"/>
<polygon fill="black" stroke="black" points="91.35,-46.04 92.02,-35.47 84.9,-43.31 91.35,-46.04"/>
<text text-anchor="middle" x="100.5" y="-57.8" font-family="Times,serif" font-size="14.00">then</text>
</g>
</g>
</svg>
