<?xml version="1.0" encoding="UTF-8" standalone="no"?>
<!DOCTYPE svg PUBLIC "-//W3C//DTD SVG 1.1//EN"
 "http://www.w3.org/Graphics/SVG/1.1/DTD/svg11.dtd">
<!-- Generated by graphviz version 2.43.0 (0)
 -->
<!-- Title: PBS Pages: 1 -->
<svg width="650pt" height="260pt"
 viewBox="0.00 0.00 649.55 260.00" xmlns="http://www.w3.org/2000/svg" xmlns:xlink="http://www.w3.org/1999/xlink">
<g id="graph0" class="graph" transform="scale(1 1) rotate(0) translate(4 256)">
<title>PBS</title>
<polygon fill="white" stroke="transparent" points="-4,4 -4,-256 645.55,-256 645.55,4 -4,4"/>
<!-- P1 -->
<g id="node1" class="node">
<title>P1</title>
<ellipse fill="none" stroke="black" cx="86.55" cy="-234" rx="30.59" ry="18"/>
<text text-anchor="middle" x="86.55" y="-230.3" font-family="Times,serif" font-size="14.00">POP</text>
</g>
<!-- B1 -->
<g id="node6" class="node">
<title>B1</title>
<ellipse fill="none" stroke="black" cx="86.55" cy="-162" rx="31.4" ry="18"/>
<text text-anchor="middle" x="86.55" y="-158.3" font-family="Times,serif" font-size="14.00">BOP</text>
</g>
<!-- P1&#45;&gt;B1 -->
<g id="edge1" class="edge">
<title>P1&#45;&gt;B1</title>
<path fill="none" stroke="black" d="M86.55,-215.7C86.55,-207.98 86.55,-198.71 86.55,-190.11"/>
<polygon fill="black" stroke="black" points="90.05,-190.1 86.55,-180.1 83.05,-190.1 90.05,-190.1"/>
</g>
<!-- P2 -->
<g id="node2" class="node">
<title>P2</title>
<ellipse fill="none" stroke="black" cx="202.55" cy="-234" rx="30.59" ry="18"/>
<text text-anchor="middle" x="202.55" y="-230.3" font-family="Times,serif" font-size="14.00">POP</text>
</g>
<!-- S2 -->
<g id="node12" class="node">
<title>S2</title>
<ellipse fill="none" stroke="black" cx="202.55" cy="-162" rx="30.59" ry="18"/>
<text text-anchor="middle" x="202.55" y="-158.3" font-family="Times,serif" font-size="14.00">SOP</text>
</g>
<!-- P2&#45;&gt;S2 -->
<g id="edge5" class="edge">
<title>P2&#45;&gt;S2</title>
<path fill="none" stroke="black" d="M202.55,-215.7C202.55,-207.98 202.55,-198.71 202.55,-190.11"/>
<polygon fill="black" stroke="black" points="206.05,-190.1 202.55,-180.1 199.05,-190.1 206.05,-190.1"/>
</g>
<!-- P3 -->
<g id="node3" class="node">
<title>P3</title>
<ellipse fill="none" stroke="black" cx="281.55" cy="-162" rx="30.59" ry="18"/>
<text text-anchor="middle" x="281.55" y="-158.3" font-family="Times,serif" font-size="14.00">POP</text>
</g>
<!-- a3 -->
<g id="node18" class="node">
<title>a3</title>
<ellipse fill="none" stroke="black" cx="281.55" cy="-90" rx="27" ry="18"/>
<text text-anchor="middle" x="281.55" y="-86.3" font-family="Times,serif" font-size="14.00">a</text>
</g>
<!-- P3&#45;&gt;a3 -->
<g id="edge10" class="edge">
<title>P3&#45;&gt;a3</title>
<path fill="none" stroke="black" d="M281.55,-143.7C281.55,-135.98 281.55,-126.71 281.55,-118.11"/>
<polygon fill="black" stroke="black" points="285.05,-118.1 281.55,-108.1 278.05,-118.1 285.05,-118.1"/>
</g>
<!-- P4 -->
<g id="node4" class="node">
<title>P4</title>
<ellipse fill="none" stroke="black" cx="458.55" cy="-162" rx="30.59" ry="18"/>
<text text-anchor="middle" x="458.55" y="-158.3" font-family="Times,serif" font-size="14.00">POP</text>
</g>
<!-- B4 -->
<g id="node9" class="node">
<title>B4</title>
<ellipse fill="none" stroke="black" cx="458.55" cy="-90" rx="31.4" ry="18"/>
<text text-anchor="middle" x="458.55" y="-86.3" font-family="Times,serif" font-size="14.00">BOP</text>
</g>
<!-- P4&#45;&gt;B4 -->
<g id="edge14" class="edge">
<title>P4&#45;&gt;B4</title>
<path fill="none" stroke="black" d="M458.55,-143.7C458.55,-135.98 458.55,-126.71 458.55,-118.11"/>
<polygon fill="black" stroke="black" points="462.05,-118.1 458.55,-108.1 455.05,-118.1 462.05,-118.1"/>
</g>
<!-- P5 -->
<g id="node5" class="node">
<title>P5</title>
<ellipse fill="none" stroke="black" cx="538.55" cy="-90" rx="30.59" ry="18"/>
<text text-anchor="middle" x="538.55" y="-86.3" font-family="Times,serif" font-size="14.00">POP</text>
</g>
<!-- a5 -->
<g id="node20" class="node">
<title>a5</title>
<ellipse fill="none" stroke="black" cx="538.55" cy="-18" rx="27" ry="18"/>
<text text-anchor="middle" x="538.55" y="-14.3" font-family="Times,serif" font-size="14.00">a</text>
</g>
<!-- P5&#45;&gt;a5 -->
<g id="edge19" class="edge">
<title>P5&#45;&gt;a5</title>
<path fill="none" stroke="black" d="M538.55,-71.7C538.55,-63.98 538.55,-54.71 538.55,-46.11"/>
<polygon fill="black" stroke="black" points="542.05,-46.1 538.55,-36.1 535.05,-46.1 542.05,-46.1"/>
</g>
<!-- S1 -->
<g id="node11" class="node">
<title>S1</title>
<ellipse fill="none" stroke="black" cx="30.55" cy="-90" rx="30.59" ry="18"/>
<text text-anchor="middle" x="30.55" y="-86.3" font-family="Times,serif" font-size="14.00">SOP</text>
</g>
<!-- B1&#45;&gt;S1 -->
<g id="edge3" class="edge">
<title>B1&#45;&gt;S1</title>
<path fill="none" stroke="black" d="M74.12,-145.46C66.8,-136.31 57.39,-124.55 49.19,-114.31"/>
<polygon fill="black" stroke="black" points="51.92,-112.11 42.94,-106.49 46.45,-116.49 51.92,-112.11"/>
</g>
<!-- a1 -->
<g id="node16" class="node">
<title>a1</title>
<ellipse fill="none" stroke="black" cx="106.55" cy="-90" rx="27" ry="18"/>
<text text-anchor="middle" x="106.55" y="-86.3" font-family="Times,serif" font-size="14.00">a</text>
</g>
<!-- B1&#45;&gt;a1 -->
<g id="edge2" class="edge">
<title>B1&#45;&gt;a1</title>
<path fill="none" stroke="black" d="M91.39,-144.05C93.65,-136.14 96.39,-126.54 98.92,-117.69"/>
<polygon fill="black" stroke="black" points="102.37,-118.37 101.75,-107.79 95.64,-116.44 102.37,-118.37"/>
</g>
<!-- B2 -->
<g id="node7" class="node">
<title>B2</title>
<ellipse fill="none" stroke="black" cx="202.55" cy="-90" rx="31.4" ry="18"/>
<text text-anchor="middle" x="202.55" y="-86.3" font-family="Times,serif" font-size="14.00">BOP</text>
</g>
<!-- a2 -->
<g id="node17" class="node">
<title>a2</title>
<ellipse fill="none" stroke="black" cx="166.55" cy="-18" rx="27" ry="18"/>
<text text-anchor="middle" x="166.55" y="-14.3" font-family="Times,serif" font-size="14.00">a</text>
</g>
<!-- B2&#45;&gt;a2 -->
<g id="edge7" class="edge">
<title>B2&#45;&gt;a2</title>
<path fill="none" stroke="black" d="M194.02,-72.41C189.71,-64.04 184.4,-53.71 179.59,-44.37"/>
<polygon fill="black" stroke="black" points="182.7,-42.76 175.02,-35.47 176.48,-45.96 182.7,-42.76"/>
</g>
<!-- b2 -->
<g id="node22" class="node">
<title>b2</title>
<ellipse fill="none" stroke="black" cx="238.55" cy="-18" rx="27" ry="18"/>
<text text-anchor="middle" x="238.55" y="-14.3" font-family="Times,serif" font-size="14.00">b</text>
</g>
<!-- B2&#45;&gt;b2 -->
<g id="edge8" class="edge">
<title>B2&#45;&gt;b2</title>
<path fill="none" stroke="black" d="M211.08,-72.41C215.38,-64.04 220.7,-53.71 225.5,-44.37"/>
<polygon fill="black" stroke="black" points="228.62,-45.96 230.08,-35.47 222.39,-42.76 228.62,-45.96"/>
</g>
<!-- B3 -->
<g id="node8" class="node">
<title>B3</title>
<ellipse fill="none" stroke="black" cx="340.55" cy="-234" rx="31.4" ry="18"/>
<text text-anchor="middle" x="340.55" y="-230.3" font-family="Times,serif" font-size="14.00">BOP</text>
</g>
<!-- B3&#45;&gt;P3 -->
<g id="edge9" class="edge">
<title>B3&#45;&gt;P3</title>
<path fill="none" stroke="black" d="M327.45,-217.46C319.74,-208.31 309.83,-196.55 301.19,-186.31"/>
<polygon fill="black" stroke="black" points="303.73,-183.88 294.6,-178.49 298.37,-188.39 303.73,-183.88"/>
</g>
<!-- S3 -->
<g id="node13" class="node">
<title>S3</title>
<ellipse fill="none" stroke="black" cx="360.55" cy="-162" rx="30.59" ry="18"/>
<text text-anchor="middle" x="360.55" y="-158.3" font-family="Times,serif" font-size="14.00">SOP</text>
</g>
<!-- B3&#45;&gt;S3 -->
<g id="edge11" class="edge">
<title>B3&#45;&gt;S3</title>
<path fill="none" stroke="black" d="M345.39,-216.05C347.65,-208.14 350.39,-198.54 352.92,-189.69"/>
<polygon fill="black" stroke="black" points="356.37,-190.37 355.75,-179.79 349.64,-188.44 356.37,-190.37"/>
</g>
<!-- a4 -->
<g id="node19" class="node">
<title>a4</title>
<ellipse fill="none" stroke="black" cx="390.55" cy="-18" rx="27" ry="18"/>
<text text-anchor="middle" x="390.55" y="-14.3" font-family="Times,serif" font-size="14.00">a</text>
</g>
<!-- B4&#45;&gt;a4 -->
<g id="edge15" class="edge">
<title>B4&#45;&gt;a4</title>
<path fill="none" stroke="black" d="M443.79,-73.81C434.49,-64.23 422.32,-51.7 411.96,-41.04"/>
<polygon fill="black" stroke="black" points="414.29,-38.41 404.81,-33.68 409.26,-43.29 414.29,-38.41"/>
</g>
<!-- b4 -->
<g id="node24" class="node">
<title>b4</title>
<ellipse fill="none" stroke="black" cx="462.55" cy="-18" rx="27" ry="18"/>
<text text-anchor="middle" x="462.55" y="-14.3" font-family="Times,serif" font-size="14.00">b</text>
</g>
<!-- B4&#45;&gt;b4 -->
<g id="edge16" class="edge">
<title>B4&#45;&gt;b4</title>
<path fill="none" stroke="black" d="M459.54,-71.7C459.98,-63.98 460.51,-54.71 461,-46.11"/>
<polygon fill="black" stroke="black" points="464.49,-46.29 461.57,-36.1 457.51,-45.89 464.49,-46.29"/>
</g>
<!-- B5 -->
<g id="node10" class="node">
<title>B5</title>
<ellipse fill="none" stroke="black" cx="576.55" cy="-162" rx="31.4" ry="18"/>
<text text-anchor="middle" x="576.55" y="-158.3" font-family="Times,serif" font-size="14.00">BOP</text>
</g>
<!-- B5&#45;&gt;P5 -->
<g id="edge18" class="edge">
<title>B5&#45;&gt;P5</title>
<path fill="none" stroke="black" d="M567.54,-144.41C563,-136.04 557.39,-125.71 552.32,-116.37"/>
<polygon fill="black" stroke="black" points="555.34,-114.59 547.49,-107.47 549.18,-117.93 555.34,-114.59"/>
</g>
<!-- b5 -->
<g id="node25" class="node">
<title>b5</title>
<ellipse fill="none" stroke="black" cx="614.55" cy="-90" rx="27" ry="18"/>
<text text-anchor="middle" x="614.55" y="-86.3" font-family="Times,serif" font-size="14.00">b</text>
</g>
<!-- B5&#45;&gt;b5 -->
<g id="edge20" class="edge">
<title>B5&#45;&gt;b5</title>
<path fill="none" stroke="black" d="M585.55,-144.41C590.1,-136.04 595.7,-125.71 600.78,-116.37"/>
<polygon fill="black" stroke="black" points="603.91,-117.93 605.61,-107.47 597.76,-114.59 603.91,-117.93"/>
</g>
<!-- b1 -->
<g id="node21" class="node">
<title>b1</title>
<ellipse fill="none" stroke="black" cx="30.55" cy="-18" rx="27" ry="18"/>
<text text-anchor="middle" x="30.55" y="-14.3" font-family="Times,serif" font-size="14.00">b</text>
</g>
<!-- S1&#45;&gt;b1 -->
<g id="edge4" class="edge">
<title>S1&#45;&gt;b1</title>
<path fill="none" stroke="black" d="M30.55,-71.7C30.55,-63.98 30.55,-54.71 30.55,-46.11"/>
<polygon fill="black" stroke="black" points="34.05,-46.1 30.55,-36.1 27.05,-46.1 34.05,-46.1"/>
</g>
<!-- S2&#45;&gt;B2 -->
<g id="edge6" class="edge">
<title>S2&#45;&gt;B2</title>
<path fill="none" stroke="black" d="M202.55,-143.7C202.55,-135.98 202.55,-126.71 202.55,-118.11"/>
<polygon fill="black" stroke="black" points="206.05,-118.1 202.55,-108.1 199.05,-118.1 206.05,-118.1"/>
</g>
<!-- b3 -->
<g id="node23" class="node">
<title>b3</title>
<ellipse fill="none" stroke="black" cx="360.55" cy="-90" rx="27" ry="18"/>
<text text-anchor="middle" x="360.55" y="-86.3" font-family="Times,serif" font-size="14.00">b</text>
</g>
<!-- S3&#45;&gt;b3 -->
<g id="edge12" class="edge">
<title>S3&#45;&gt;b3</title>
<path fill="none" stroke="black" d="M360.55,-143.7C360.55,-135.98 360.55,-126.71 360.55,-118.11"/>
<polygon fill="black" stroke="black" points="364.05,-118.1 360.55,-108.1 357.05,-118.1 364.05,-118.1"/>
</g>
<!-- S4 -->
<g id="node14" class="node">
<title>S4</title>
<ellipse fill="none" stroke="black" cx="458.55" cy="-234" rx="30.59" ry="18"/>
<text text-anchor="middle" x="458.55" y="-230.3" font-family="Times,serif" font-size="14.00">SOP</text>
</g>
<!-- S4&#45;&gt;P4 -->
<g id="edge13" class="edge">
<title>S4&#45;&gt;P4</title>
<path fill="none" stroke="black" d="M458.55,-215.7C458.55,-207.98 458.55,-198.71 458.55,-190.11"/>
<polygon fill="black" stroke="black" points="462.05,-190.1 458.55,-180.1 455.05,-190.1 462.05,-190.1"/>
</g>
<!-- S5 -->
<g id="node15" class="node">
<title>S5</title>
<ellipse fill="none" stroke="black" cx="576.55" cy="-234" rx="30.59" ry="18"/>
<text text-anchor="middle" x="576.55" y="-230.3" font-family="Times,serif" font-size="14.00">SOP</text>
</g>
<!-- S5&#45;&gt;B5 -->
<g id="edge17" class="edge">
<title>S5&#45;&gt;B5</title>
<path fill="none" stroke="black" d="M576.55,-215.7C576.55,-207.98 576.55,-198.71 576.55,-190.11"/>
<polygon fill="black" stroke="black" points="580.05,-190.1 576.55,-180.1 573.05,-190.1 580.05,-190.1"/>
</g>
</g>
</svg>
