<?xml version="1.0" encoding="UTF-8" standalone="no"?>
<!DOCTYPE svg PUBLIC "-//W3C//DTD SVG 1.1//EN"
 "http://www.w3.org/Graphics/SVG/1.1/DTD/svg11.dtd">
<!-- Generated by graphviz version 2.43.0 (0)
 -->
<!-- Title: slashstar Pages: 1 -->
<svg width="576pt" height="143pt"
 viewBox="0.00 0.00 576.45 142.74" xmlns="http://www.w3.org/2000/svg" xmlns:xlink="http://www.w3.org/1999/xlink">
<g id="graph0" class="graph" transform="scale(1 1) rotate(0) translate(4 138.74)">
<title>slashstar</title>
<polygon fill="white" stroke="transparent" points="-4,4 -4,-138.74 572.45,-138.74 572.45,4 -4,4"/>
<!-- lfs -->
<g id="node1" class="node">
<title>lfs</title>
<ellipse fill="none" stroke="black" cx="175.38" cy="-47.87" rx="48.17" ry="37.45"/>
<text text-anchor="middle" x="175.38" y="-59.17" font-family="Times,serif" font-size="14.00">looking</text>
<text text-anchor="middle" x="175.38" y="-44.17" font-family="Times,serif" font-size="14.00">for</text>
<text text-anchor="middle" x="175.38" y="-29.17" font-family="Times,serif" font-size="14.00">star</text>
</g>
<!-- lfs&#45;&gt;lfs -->
<g id="edge2" class="edge">
<title>lfs&#45;&gt;lfs</title>
<path fill="none" stroke="black" d="M160.77,-83.62C161.06,-94.67 165.93,-103.35 175.38,-103.35 181.72,-103.35 186,-99.43 188.22,-93.51"/>
<polygon fill="black" stroke="black" points="191.67,-94.08 189.99,-83.62 184.78,-92.85 191.67,-94.08"/>
<text text-anchor="middle" x="175.38" y="-107.15" font-family="Times,serif" font-size="14.00">~[&#39;*&#39;]</text>
</g>
<!-- fs -->
<g id="node2" class="node">
<title>fs</title>
<ellipse fill="none" stroke="black" cx="341.77" cy="-74.87" rx="40.11" ry="26.74"/>
<text text-anchor="middle" x="341.77" y="-78.67" font-family="Times,serif" font-size="14.00">found</text>
<text text-anchor="middle" x="341.77" y="-63.67" font-family="Times,serif" font-size="14.00">star</text>
</g>
<!-- lfs&#45;&gt;fs -->
<g id="edge3" class="edge">
<title>lfs&#45;&gt;fs</title>
<path fill="none" stroke="black" d="M221.03,-59.66C227.84,-61.22 234.82,-62.69 241.46,-63.87 257.57,-66.73 275.29,-68.98 291.25,-70.67"/>
<polygon fill="black" stroke="black" points="291.15,-74.18 301.45,-71.71 291.85,-67.22 291.15,-74.18"/>
<text text-anchor="middle" x="262.46" y="-73.67" font-family="Times,serif" font-size="14.00">&quot;*&quot;</text>
</g>
<!-- end -->
<g id="node3" class="node">
<title>end</title>
<ellipse fill="none" stroke="black" cx="505.76" cy="-30.87" rx="58.87" ry="26.76"/>
<ellipse fill="none" stroke="black" cx="505.76" cy="-30.87" rx="62.88" ry="30.74"/>
<text text-anchor="middle" x="505.76" y="-34.67" font-family="Times,serif" font-size="14.00">end of</text>
<text text-anchor="middle" x="505.76" y="-19.67" font-family="Times,serif" font-size="14.00">comment</text>
</g>
<!-- lfs&#45;&gt;end -->
<g id="edge4" class="edge">
<title>lfs&#45;&gt;end</title>
<path fill="none" stroke="black" d="M221.53,-37.06C245.18,-31.95 274.72,-26.41 301.46,-23.87 345.45,-19.69 394.99,-21.27 434.16,-23.97"/>
<polygon fill="black" stroke="black" points="433.92,-27.46 444.15,-24.7 434.43,-20.48 433.92,-27.46"/>
<text text-anchor="middle" x="341.77" y="-27.67" font-family="Times,serif" font-size="14.00">&quot;*/&quot;</text>
</g>
<!-- fs&#45;&gt;lfs -->
<g id="edge5" class="edge">
<title>fs&#45;&gt;lfs</title>
<path fill="none" stroke="black" d="M312.11,-56.43C303.27,-51.71 293.27,-47.28 283.46,-44.87 267.31,-40.9 249.37,-40.07 232.87,-40.67"/>
<polygon fill="black" stroke="black" points="232.61,-37.18 222.81,-41.21 232.98,-44.17 232.61,-37.18"/>
<text text-anchor="middle" x="262.46" y="-48.67" font-family="Times,serif" font-size="14.00">~[&#39;*/&#39;]</text>
</g>
<!-- fs&#45;&gt;fs -->
<g id="edge6" class="edge">
<title>fs&#45;&gt;fs</title>
<path fill="none" stroke="black" d="M328.72,-100.69C327.98,-111.05 332.33,-119.74 341.77,-119.74 347.81,-119.74 351.77,-116.17 353.63,-110.89"/>
<polygon fill="black" stroke="black" points="357.14,-111.03 354.81,-100.69 350.19,-110.22 357.14,-111.03"/>
<text text-anchor="middle" x="341.77" y="-123.54" font-family="Times,serif" font-size="14.00">&quot;*&quot;</text>
</g>
<!-- fs&#45;&gt;end -->
<g id="edge7" class="edge">
<title>fs&#45;&gt;end</title>
<path fill="none" stroke="black" d="M379.52,-64.89C397.66,-59.96 420.06,-53.88 440.87,-48.22"/>
<polygon fill="black" stroke="black" points="441.89,-51.57 450.62,-45.57 440.06,-44.82 441.89,-51.57"/>
<text text-anchor="middle" x="412.57" y="-62.67" font-family="Times,serif" font-size="14.00">&quot;*/&quot;</text>
</g>
<!-- start -->
<g id="node4" class="node">
<title>start</title>
<ellipse fill="none" stroke="black" cx="33.15" cy="-47.87" rx="33.29" ry="18"/>
<text text-anchor="middle" x="33.15" y="-44.17" font-family="Times,serif" font-size="14.00">start</text>
</g>
<!-- start&#45;&gt;lfs -->
<g id="edge1" class="edge">
<title>start&#45;&gt;lfs</title>
<path fill="none" stroke="black" d="M66.32,-47.87C81.39,-47.87 99.81,-47.87 117.15,-47.87"/>
<polygon fill="black" stroke="black" points="117.19,-51.37 127.19,-47.87 117.19,-44.37 117.19,-51.37"/>
<text text-anchor="middle" x="96.79" y="-51.67" font-family="Times,serif" font-size="14.00">&quot;/*&quot;</text>
</g>
</g>
</svg>
