<?xml version="1.0" encoding="UTF-8" standalone="no"?>
<!DOCTYPE svg PUBLIC "-//W3C//DTD SVG 1.1//EN"
 "http://www.w3.org/Graphics/SVG/1.1/DTD/svg11.dtd">
<!-- Generated by graphviz version 2.43.0 (0)
 -->
<!-- Title: slashstar Pages: 1 -->
<svg width="570pt" height="116pt"
 viewBox="0.00 0.00 570.45 115.95" xmlns="http://www.w3.org/2000/svg" xmlns:xlink="http://www.w3.org/1999/xlink">
<g id="graph0" class="graph" transform="scale(1 1) rotate(0) translate(4 111.95)">
<title>slashstar</title>
<polygon fill="white" stroke="transparent" points="-4,4 -4,-111.95 566.45,-111.95 566.45,4 -4,4"/>
<!-- lfs -->
<g id="node1" class="node">
<title>lfs</title>
<ellipse fill="none" stroke="black" cx="175.38" cy="-37.48" rx="48.17" ry="37.45"/>
<text text-anchor="middle" x="175.38" y="-48.78" font-family="Times,serif" font-size="14.00">looking</text>
<text text-anchor="middle" x="175.38" y="-33.78" font-family="Times,serif" font-size="14.00">for</text>
<text text-anchor="middle" x="175.38" y="-18.78" font-family="Times,serif" font-size="14.00">star</text>
</g>
<!-- lfs&#45;&gt;lfs -->
<g id="edge2" class="edge">
<title>lfs&#45;&gt;lfs</title>
<path fill="none" stroke="black" d="M160.77,-73.23C161.06,-84.28 165.93,-92.95 175.38,-92.95 181.72,-92.95 186,-89.04 188.22,-83.11"/>
<polygon fill="black" stroke="black" points="191.67,-83.69 189.99,-73.23 184.78,-82.45 191.67,-83.69"/>
<text text-anchor="middle" x="175.38" y="-96.75" font-family="Times,serif" font-size="14.00">~[&#39;*&#39;]</text>
</g>
<!-- fs -->
<g id="node2" class="node">
<title>fs</title>
<ellipse fill="none" stroke="black" cx="341.77" cy="-37.48" rx="40.11" ry="26.74"/>
<text text-anchor="middle" x="341.77" y="-41.28" font-family="Times,serif" font-size="14.00">found</text>
<text text-anchor="middle" x="341.77" y="-26.28" font-family="Times,serif" font-size="14.00">star</text>
</g>
<!-- lfs&#45;&gt;fs -->
<g id="edge3" class="edge">
<title>lfs&#45;&gt;fs</title>
<path fill="none" stroke="black" d="M223.48,-37.48C244.68,-37.48 269.72,-37.48 291.2,-37.48"/>
<polygon fill="black" stroke="black" points="291.43,-40.98 301.43,-37.48 291.43,-33.98 291.43,-40.98"/>
<text text-anchor="middle" x="262.46" y="-41.28" font-family="Times,serif" font-size="14.00">&quot;*&quot;</text>
</g>
<!-- fs&#45;&gt;lfs -->
<g id="edge4" class="edge">
<title>fs&#45;&gt;lfs</title>
<path fill="none" stroke="black" d="M306.67,-24.2C299.14,-21.82 291.12,-19.71 283.46,-18.48 265.03,-15.5 259.94,-15.83 241.46,-18.48 237.57,-19.03 233.59,-19.77 229.61,-20.62"/>
<polygon fill="black" stroke="black" points="228.68,-17.25 219.76,-22.97 230.3,-24.06 228.68,-17.25"/>
<text text-anchor="middle" x="262.46" y="-22.28" font-family="Times,serif" font-size="14.00">~[&#39;*/&#39;]</text>
</g>
<!-- fs&#45;&gt;fs -->
<g id="edge5" class="edge">
<title>fs&#45;&gt;fs</title>
<path fill="none" stroke="black" d="M329.47,-63.3C328.77,-73.65 332.87,-82.35 341.77,-82.35 347.46,-82.35 351.19,-78.78 352.96,-73.49"/>
<polygon fill="black" stroke="black" points="356.46,-73.62 354.07,-63.3 349.5,-72.86 356.46,-73.62"/>
<text text-anchor="middle" x="341.77" y="-86.15" font-family="Times,serif" font-size="14.00">&quot;*&quot;</text>
</g>
<!-- end -->
<g id="node3" class="node">
<title>end</title>
<ellipse fill="none" stroke="black" cx="499.76" cy="-37.48" rx="58.87" ry="26.76"/>
<ellipse fill="none" stroke="black" cx="499.76" cy="-37.48" rx="62.88" ry="30.74"/>
<text text-anchor="middle" x="499.76" y="-41.28" font-family="Times,serif" font-size="14.00">end of</text>
<text text-anchor="middle" x="499.76" y="-26.28" font-family="Times,serif" font-size="14.00">comment</text>
</g>
<!-- fs&#45;&gt;end -->
<g id="edge6" class="edge">
<title>fs&#45;&gt;end</title>
<path fill="none" stroke="black" d="M382.13,-37.48C395.75,-37.48 411.48,-37.48 426.89,-37.48"/>
<polygon fill="black" stroke="black" points="426.94,-40.98 436.94,-37.48 426.94,-33.98 426.94,-40.98"/>
<text text-anchor="middle" x="409.57" y="-41.28" font-family="Times,serif" font-size="14.00">&quot;/&quot;</text>
</g>
<!-- start -->
<g id="node4" class="node">
<title>start</title>
<ellipse fill="none" stroke="black" cx="33.15" cy="-37.48" rx="33.29" ry="18"/>
<text text-anchor="middle" x="33.15" y="-33.78" font-family="Times,serif" font-size="14.00">start</text>
</g>
<!-- start&#45;&gt;lfs -->
<g id="edge1" class="edge">
<title>start&#45;&gt;lfs</title>
<path fill="none" stroke="black" d="M66.32,-37.48C81.39,-37.48 99.81,-37.48 117.15,-37.48"/>
<polygon fill="black" stroke="black" points="117.19,-40.98 127.19,-37.48 117.19,-33.98 117.19,-40.98"/>
<text text-anchor="middle" x="96.79" y="-41.28" font-family="Times,serif" font-size="14.00">&quot;/*&quot;</text>
</g>
</g>
</svg>
