<?xml version="1.0" encoding="UTF-8" standalone="no"?>
<!DOCTYPE svg PUBLIC "-//W3C//DTD SVG 1.1//EN"
 "http://www.w3.org/Graphics/SVG/1.1/DTD/svg11.dtd">
<!-- Generated by graphviz version 2.43.0 (0)
 -->
<!-- Title: slashstar Pages: 1 -->
<svg width="559pt" height="150pt"
 viewBox="0.00 0.00 559.30 149.82" xmlns="http://www.w3.org/2000/svg" xmlns:xlink="http://www.w3.org/1999/xlink">
<g id="graph0" class="graph" transform="scale(1 1) rotate(0) translate(4 145.82)">
<title>slashstar</title>
<polygon fill="white" stroke="transparent" points="-4,4 -4,-145.82 555.3,-145.82 555.3,4 -4,4"/>
<!-- rfss -->
<g id="node1" class="node">
<title>rfss</title>
<ellipse fill="none" stroke="black" cx="188.11" cy="-66.95" rx="60.62" ry="26.74"/>
<text text-anchor="middle" x="188.11" y="-70.75" font-family="Times,serif" font-size="14.00">ready for</text>
<text text-anchor="middle" x="188.11" y="-55.75" font-family="Times,serif" font-size="14.00">star slash</text>
</g>
<!-- rfss&#45;&gt;rfss -->
<g id="edge2" class="edge">
<title>rfss&#45;&gt;rfss</title>
<path fill="none" stroke="black" d="M171.3,-93.22C170.55,-103.38 176.15,-111.82 188.11,-111.82 195.76,-111.82 200.81,-108.36 203.26,-103.19"/>
<polygon fill="black" stroke="black" points="206.73,-103.66 204.91,-93.22 199.82,-102.51 206.73,-103.66"/>
<text text-anchor="middle" x="188.11" y="-130.62" font-family="Times,serif" font-size="14.00">~[&quot;*&quot;]</text>
<text text-anchor="middle" x="188.11" y="-115.62" font-family="Times,serif" font-size="14.00">(any non&#45;star)</text>
</g>
<!-- end -->
<g id="node2" class="node">
<title>end</title>
<ellipse fill="none" stroke="black" cx="488.61" cy="-104.95" rx="58.87" ry="26.76"/>
<ellipse fill="none" stroke="black" cx="488.61" cy="-104.95" rx="62.88" ry="30.74"/>
<text text-anchor="middle" x="488.61" y="-108.75" font-family="Times,serif" font-size="14.00">end of</text>
<text text-anchor="middle" x="488.61" y="-93.75" font-family="Times,serif" font-size="14.00">comment</text>
</g>
<!-- rfss&#45;&gt;end -->
<g id="edge5" class="edge">
<title>rfss&#45;&gt;end</title>
<path fill="none" stroke="black" d="M242.97,-78.78C250.98,-80.32 259.14,-81.77 266.92,-82.95 316.61,-90.51 373,-96.08 416.34,-99.73"/>
<polygon fill="black" stroke="black" points="416.25,-103.23 426.51,-100.57 416.83,-96.26 416.25,-103.23"/>
<text text-anchor="middle" x="337.42" y="-102.75" font-family="Times,serif" font-size="14.00">&quot;*/&quot;</text>
</g>
<!-- fs -->
<g id="node4" class="node">
<title>fs</title>
<ellipse fill="none" stroke="black" cx="488.61" cy="-25.95" rx="27" ry="18"/>
<text text-anchor="middle" x="488.61" y="-22.25" font-family="Times,serif" font-size="14.00">fs</text>
</g>
<!-- rfss&#45;&gt;fs -->
<g id="edge3" class="edge">
<title>rfss&#45;&gt;fs</title>
<path fill="none" stroke="black" d="M248.36,-63.15C292.55,-59.79 354.27,-54 407.92,-44.95 423.04,-42.4 439.56,-38.63 453.62,-35.11"/>
<polygon fill="black" stroke="black" points="454.54,-38.49 463.37,-32.62 452.81,-31.71 454.54,-38.49"/>
<text text-anchor="middle" x="337.42" y="-65.75" font-family="Times,serif" font-size="14.00">&quot;*&quot;</text>
</g>
<!-- start -->
<g id="node3" class="node">
<title>start</title>
<ellipse fill="none" stroke="black" cx="33.15" cy="-66.95" rx="33.29" ry="18"/>
<text text-anchor="middle" x="33.15" y="-63.25" font-family="Times,serif" font-size="14.00">start</text>
</g>
<!-- start&#45;&gt;rfss -->
<g id="edge1" class="edge">
<title>start&#45;&gt;rfss</title>
<path fill="none" stroke="black" d="M66.59,-66.95C81.32,-66.95 99.36,-66.95 116.96,-66.95"/>
<polygon fill="black" stroke="black" points="117.24,-70.45 127.24,-66.95 117.24,-63.45 117.24,-70.45"/>
<text text-anchor="middle" x="96.79" y="-70.75" font-family="Times,serif" font-size="14.00">&quot;/*&quot;</text>
</g>
<!-- fs&#45;&gt;rfss -->
<g id="edge4" class="edge">
<title>fs&#45;&gt;rfss</title>
<path fill="none" stroke="black" d="M463.71,-18.65C422.44,-7.27 335.63,11.21 266.92,-10.95 250.93,-16.1 235.46,-25.89 222.58,-35.87"/>
<polygon fill="black" stroke="black" points="220.08,-33.38 214.51,-42.4 224.49,-38.83 220.08,-33.38"/>
<text text-anchor="middle" x="337.42" y="-29.75" font-family="Times,serif" font-size="14.00">~[&quot;/&quot;]?</text>
<text text-anchor="middle" x="337.42" y="-14.75" font-family="Times,serif" font-size="14.00">(optional non&#45;slash)</text>
</g>
</g>
</svg>
